<?xml version="1.0" encoding="UTF-8"?>
<svg width="76px" height="76px" viewBox="0 0 76 76" version="1.1" xmlns="http://www.w3.org/2000/svg" xmlns:xlink="http://www.w3.org/1999/xlink">
    <!-- Generator: Sketch 52.6 (67491) - http://www.bohemiancoding.com/sketch -->
    <title>Group</title>
    <desc>Created with Sketch.</desc>
    <g id="Page-1" stroke="none" stroke-width="1" fill="none" fill-rule="evenodd">
        <g id="Group">
            <rect id="Rectangle-Copy" fill="#4267B2" x="0" y="0" width="76" height="76"></rect>
            <g id="Facebook" transform="translate(13.000000, 13.000000)" fill="#FFFFFF">
                <g id="facebook-letter-logo" transform="translate(16.666667, 8.333333)">
                    <path d="M3.4092034,6.44238206 C3.4092034,7.28066512 3.4092034,11.0222738 3.4092034,11.0222738 L0.0538283063,11.0222738 L0.0538283063,16.6225831 L3.4092034,16.6225831 L3.4092034,33.2647332 L10.3018561,33.2647332 L10.3018561,16.6230472 L14.9271462,16.6230472 C14.9271462,16.6230472 15.3603248,13.9377417 15.5703016,11.0016241 C14.9682908,11.0016241 10.3279196,11.0016241 10.3279196,11.0016241 C10.3279196,11.0016241 10.3279196,7.74354215 10.3279196,7.17246713 C10.3279196,6.60015468 11.0794277,5.83031709 11.8221964,5.83031709 C12.5635731,5.83031709 14.1283063,5.83031709 15.5775715,5.83031709 C15.5775715,5.06782676 15.5775715,2.43325599 15.5775715,7.73395205e-05 C13.6428461,7.73395205e-05 11.4417633,7.73395205e-05 10.4715391,7.73395205e-05 C3.23882444,-0.000309358082 3.4092034,5.60556845 3.4092034,6.44238206 Z" id="Facebook"></path>
                </g>
            </g>
        </g>
    </g>
</svg>